<svg width="32" height="32" viewBox="0 0 32 32" fill="none" xmlns="http://www.w3.org/2000/svg">
  <rect width="32" height="32" rx="8" fill="url(#paint0_linear)"/>
  <path d="M22 12.5C21.5 10.5 19.5 9 16.5 9C12.9101 9 10 11.9101 10 15.5C10 19.0899 12.9101 22 16.5 22C19.5 22 21.5 20.5 22 18.5V16H16V18H20C19.5 19.5 18 20.5 16.5 20.5C13.7386 20.5 11.5 18.2614 11.5 15.5C11.5 12.7386 13.7386 10.5 16.5 10.5C18 10.5 19.5 11.5 20 12.5H22Z" fill="white"/>
  <defs>
    <linearGradient id="paint0_linear" x1="0" y1="0" x2="32" y2="32" gradientUnits="userSpaceOnUse">
      <stop stop-color="#3B82F6"/>
      <stop offset="1" stop-color="#8B5CF6"/>
    </linearGradient>
  </defs>
</svg>
